<svg xmlns="http://www.w3.org/2000/svg" fill="currentColor" preserveAspectRatio="xMidYMid meet" height="1em" width="1em" viewBox="0 0 16 16">
  <g>
    <path
      d="M12.5 0a.5.5 0 01.5.5v2.145l-.041-.012a3.502 3.502 0 01.18 6.677l-.14.045L13 15.5a.5.5 0 01-.5.5h-1a.5.5 0 01-.5-.5l-.001-6.145.033.01a3.502 3.502 0 01-.18-6.672l.147-.048L11 .5a.5.5 0 01.5-.5h1zm-8 0a.5.5 0 01.5.5v6.145l-.041-.012a3.502 3.502 0 01.18 6.677l-.14.045L5 15.5a.5.5 0 01-.5.5h-1a.5.5 0 01-.5-.5l-.001-2.145.033.01a3.502 3.502 0 01-.18-6.672l.147-.048L3 .5a.5.5 0 01.5-.5h1zM4 8.5a1.5 1.5 0 100 3 1.5 1.5 0 000-3zm8-4a1.5 1.5 0 100 3 1.5 1.5 0 000-3z"></path>
  </g>
</svg>
